<?xml version="1.0" encoding="UTF-8"?>
<svg id="Capa_2" data-name="Capa 2" xmlns="http://www.w3.org/2000/svg" viewBox="0 0 238.01 134.33">
  <defs>
    <style>
      .cls-1 {
        fill: #3a3b82;
      }
    </style>
  </defs>
  <g id="Capa_1-2" data-name="Capa 1">
    <g>
      <path class="cls-1" d="M80.28,108.6h0c6.59,0,11.93-5.34,11.93-11.93v-31.15c0-3.93-3.19-7.12-7.12-7.12h-9.61c-3.93,0-7.12,3.19-7.12,7.12v31.15c0,6.59,5.34,11.93,11.93,11.93Z"/>
      <path class="cls-1" d="M86.34,52.26h-12.12c-3.23,0-5.87-2.64-5.87-5.87h0c0-7.26,5.94-13.2,13.2-13.2h.45c5.61,0,10.2,4.59,10.2,10.2v3c0,3.23-2.64,5.87-5.87,5.87Z"/>
      <path class="cls-1" d="M222.27,99.51h-2.36c-8.21,0-14.86-6.65-14.86-14.86v-28.21c0-3.93,3.19-7.12,7.12-7.12h9.61c3.93,0,7.12,3.19,7.12,7.12v36.44c0,3.66-2.97,6.63-6.63,6.63Z"/>
      <path class="cls-1" d="M223.04,43.84h-12.12c-3.23,0-5.87-2.64-5.87-5.87h0c0-7.26,5.94-13.2,13.2-13.2h.45c5.61,0,10.2,4.59,10.2,10.2v3c0,3.23-2.64,5.87-5.87,5.87Z"/>
      <path class="cls-1" d="M104.93,22.64c-3.41,0-6.17,2.79-6.13,6.2l.82,70.32c.04,4.11,3.38,7.42,7.48,7.42h0c10.75,0,19.44-8.77,19.33-19.52l-.25-26.52c-.02-2.29,1.83-4.15,4.12-4.14h0c3.02.01,5.47,2.45,5.5,5.48l.31,32.15c.07,6.95,5.72,12.55,12.67,12.55h0c7,0,12.67-5.67,12.67-12.67v-33.42c0-2.27,1.84-4.1,4.1-4.1h0c3.11,0,5.61,2.57,5.53,5.68-.36,13.36.34,46.68,15.23,60.31,18.83,17.24,43.67,12.82,48.72,5.55,6.73-9.69,1.21-21.92-8.81-22.23-10.02-.32-26.16-.12-27.34-21.65-1.19-21.52,3.26-45.6-11.29-52.79-14.55-7.2-26.26,4.21-26.26,4.21,0,0-17.52-16-35.44,1.44h0c-5.64-11.58-13.14-14.26-20.98-14.26h0Z"/>
      <path class="cls-1" d="M98.8,6.18c.63,3.06.82,6.56-.07,9.55-.88,2.99-2.45,5.86-4.89,7.79-5.25,4.18-12.65,3.86-19,4.1-4.48.16-8.96.34-13.44.5-1.16,13.35-1.32,26.8-1.21,40.2,0,.97.01,1.95.02,2.92.01,1.88.02,3.98.05,6.22v.3s.01,37.19.01,37.19c0,9.49-7.7,17.2-17.19,17.2h-1.67c-4.57,0-8.26-3.7-8.26-8.27v-41.27l.02-4.85.05-13.88c0-.18.01-.37.01-.54.29-11.14.75-22.28,1.21-33.61-7.21-.23-14.46.35-20.46,4.11-1.54.96-3.05,2.15-4.85,2.31-1.98.17-3.84-.97-5.23-2.4C.54,30.29-.71,24.97.39,20.24c1.08-4.74,4.34-8.84,8.5-11.38,3.56-2.16,7.57-3.01,11.67-3.39.01-.01.03-.01.05-.01.71-.07,1.44-.12,2.16-.16h.09c2.2-.13,4.41-.17,6.55-.25,6.2-.23,12.39-.47,18.6-.69,7.95-.29,15.89-.6,23.83-.89,6.94-.26,10.54.16,17.06-2.57,5.59-2.35,8.84.05,9.91,5.28Z"/>
    </g>
  </g>
</svg>